HIERARCHY
ROOT Crab_Bone_002
{
	OFFSET 0.000001 1.809483 1.070690
	CHANNELS 6 Xposition Yposition Zposition Xrotation Yrotation Zrotation
	JOINT Crab_Bone_003
	{
		OFFSET -0.001212 -3.444643 1.330027
		CHANNELS 3 Xrotation Yrotation Zrotation
		JOINT Crab_Bone_004
		{
			OFFSET -0.000258 -0.734549 0.283620
			CHANNELS 3 Xrotation Yrotation Zrotation
			JOINT Crab_Bone_005
			{
				OFFSET -2.212137 2.996329 -3.161722
				CHANNELS 3 Xrotation Yrotation Zrotation
				JOINT Crab_Bone_006
				{
					OFFSET -2.363831 -0.999774 0.737129
					CHANNELS 3 Xrotation Yrotation Zrotation
					JOINT Crab_Bone_007
					{
						OFFSET 0.679981 -1.781121 0.391521
						CHANNELS 3 Xrotation Yrotation Zrotation
						JOINT Crab_Bone_012
						{
							OFFSET 0.167619 -0.705615 0.156840
							CHANNELS 3 Xrotation Yrotation Zrotation
							JOINT Crab_Bone_013
							{
								OFFSET 1.027711 -2.075420 1.136799
								CHANNELS 3 Xrotation Yrotation Zrotation
								End Site
								{
									OFFSET 0.059793 0.725938 2.474936
								}
							}
						}
						JOINT Crab_Bone_014
						{
							OFFSET 0.169967 -0.716239 0.177733
							CHANNELS 3 Xrotation Yrotation Zrotation
							JOINT Crab_Bone_015
							{
								OFFSET 1.177098 -2.213120 -0.871869
								CHANNELS 3 Xrotation Yrotation Zrotation
								End Site
								{
									OFFSET -0.140401 -0.651721 2.568885
								}
							}
						}
					}
				}
			}
		}
		JOINT Crab_Bone_008
		{
			OFFSET -0.000258 -0.734549 0.283620
			CHANNELS 3 Xrotation Yrotation Zrotation
			JOINT Crab_Bone_009
			{
				OFFSET 2.536297 2.452007 -2.009468
				CHANNELS 3 Xrotation Yrotation Zrotation
				JOINT Crab_Bone_010
				{
					OFFSET 1.536116 -0.822250 0.380907
					CHANNELS 3 Xrotation Yrotation Zrotation
					JOINT Crab_Bone_011
					{
						OFFSET -0.216882 -1.545392 0.401011
						CHANNELS 3 Xrotation Yrotation Zrotation
						JOINT Crab_Bone_016
						{
							OFFSET -0.105369 -0.640233 0.098495
							CHANNELS 3 Xrotation Yrotation Zrotation
							JOINT Crab_Bone_017
							{
								OFFSET -0.877063 -1.746863 0.622338
								CHANNELS 3 Xrotation Yrotation Zrotation
								End Site
								{
									OFFSET 0.058713 0.817211 1.880637
								}
							}
						}
						JOINT Crab_Bone_018
						{
							OFFSET -0.117790 -0.696131 0.111856
							CHANNELS 3 Xrotation Yrotation Zrotation
							JOINT Crab_Bone_019
							{
								OFFSET -0.774615 -2.143309 -0.762011
								CHANNELS 3 Xrotation Yrotation Zrotation
								End Site
								{
									OFFSET 0.098373 -1.177132 2.092640
								}
							}
						}
					}
				}
			}
		}
	}
	JOINT Crab_Bone_020
	{
		OFFSET -1.116273 -0.154590 -0.374501
		CHANNELS 3 Xrotation Yrotation Zrotation
		JOINT Crab_Bone_021
		{
			OFFSET -3.118662 1.611093 1.513430
			CHANNELS 3 Xrotation Yrotation Zrotation
			JOINT Crab_Bone_022
			{
				OFFSET -1.588351 2.658805 -1.742729
				CHANNELS 3 Xrotation Yrotation Zrotation
				End Site
				{
					OFFSET -3.122031 -1.424496 0.923547
				}
			}
		}
	}
	JOINT Crab_Bone_023
	{
		OFFSET -1.485358 -0.679445 -0.384127
		CHANNELS 3 Xrotation Yrotation Zrotation
		JOINT Crab_Bone_024
		{
			OFFSET -4.354937 1.041430 2.735311
			CHANNELS 3 Xrotation Yrotation Zrotation
			JOINT Crab_Bone_025
			{
				OFFSET -3.146346 1.140532 -2.766851
				CHANNELS 3 Xrotation Yrotation Zrotation
				End Site
				{
					OFFSET -1.594861 -4.033993 0.197688
				}
			}
		}
	}
	JOINT Crab_Bone_026
	{
		OFFSET -1.641655 -1.332070 -0.435368
		CHANNELS 3 Xrotation Yrotation Zrotation
		JOINT Crab_Bone_027
		{
			OFFSET -4.159019 0.186248 1.795406
			CHANNELS 3 Xrotation Yrotation Zrotation
			JOINT Crab_Bone_028
			{
				OFFSET -3.475782 0.547989 -1.456533
				CHANNELS 3 Xrotation Yrotation Zrotation
				End Site
				{
					OFFSET -0.634418 -3.753667 0.101702
				}
			}
		}
	}
	JOINT Crab_Bone_029
	{
		OFFSET -1.691511 -1.877323 -0.077977
		CHANNELS 3 Xrotation Yrotation Zrotation
		JOINT Crab_Bone_030
		{
			OFFSET -4.567539 -1.546834 1.375860
			CHANNELS 3 Xrotation Yrotation Zrotation
			JOINT Crab_Bone_031
			{
				OFFSET -2.285981 -1.723023 -1.671352
				CHANNELS 3 Xrotation Yrotation Zrotation
				End Site
				{
					OFFSET 2.513823 -2.117836 -0.428249
				}
			}
		}
	}
	JOINT Crab_Bone_020_Bis
	{
		OFFSET 1.052121 -0.155333 -0.407179
		CHANNELS 3 Xrotation Yrotation Zrotation
		JOINT Crab_Bone_021_Bis
		{
			OFFSET 3.269777 1.689566 1.700762
			CHANNELS 3 Xrotation Yrotation Zrotation
			JOINT Crab_Bone_022_Bis
			{
				OFFSET 1.433824 3.291166 -1.667421
				CHANNELS 3 Xrotation Yrotation Zrotation
				End Site
				{
					OFFSET -3.624812 1.364690 -0.816260
				}
			}
		}
	}
	JOINT Crab_Bone_023_Bis
	{
		OFFSET 1.420852 -0.680440 -0.618396
		CHANNELS 3 Xrotation Yrotation Zrotation
		JOINT Crab_Bone_024_Bis
		{
			OFFSET 3.158329 0.755220 2.314403
			CHANNELS 3 Xrotation Yrotation Zrotation
			JOINT Crab_Bone_025_Bis
			{
				OFFSET 3.724785 1.320794 -2.253904
				CHANNELS 3 Xrotation Yrotation Zrotation
				End Site
				{
					OFFSET -1.615193 4.246540 -0.238007
				}
			}
		}
	}
	JOINT Crab_Bone_026_Bis
	{
		OFFSET 1.576704 -1.333172 -0.624875
		CHANNELS 3 Xrotation Yrotation Zrotation
		JOINT Crab_Bone_027_Bis
		{
			OFFSET 3.858073 0.173228 2.214125
			CHANNELS 3 Xrotation Yrotation Zrotation
			JOINT Crab_Bone_028_Bis
			{
				OFFSET 3.076779 0.421557 -1.941671
				CHANNELS 3 Xrotation Yrotation Zrotation
				End Site
				{
					OFFSET -0.558715 3.617706 -0.120044
				}
			}
		}
	}
	JOINT Crab_Bone_029_Bis
	{
		OFFSET 1.626128 -2.007151 -0.390477
		CHANNELS 3 Xrotation Yrotation Zrotation
		JOINT Crab_Bone_030_Bis
		{
			OFFSET 3.013092 -0.711103 1.404963
			CHANNELS 3 Xrotation Yrotation Zrotation
			JOINT Crab_Bone_031_Bis
			{
				OFFSET 2.645858 -2.135076 -1.922209
				CHANNELS 3 Xrotation Yrotation Zrotation
				End Site
				{
					OFFSET 2.656470 2.760786 0.758435
				}
			}
		}
	}
}
MOTION
Frames: 4
Frame Time: 0.040000
0.000000 1.809483 1.070688 -0.000002 -0.016340 -0.026254 -0.000006 -0.000004 -0.000006 1.006329 2.311788 -2.293726 0.103377 -1.090247 -1.111003 -3.414453 2.503449 20.225201 0.000000 0.000004 -0.000001 4.945127 2.468218 -0.070490 0.000006 -0.000003 0.000014 -7.092779 -3.775533 -0.201594 0.000007 -0.000001 0.000012 -1.027313 -0.378111 -4.330670 0.205952 1.281670 1.843460 -2.356619 -8.061281 -32.829998 0.000003 -0.000002 -0.000003 1.567738 0.672879 3.946771 0.000005 0.000000 0.000012 13.099375 -5.849001 6.053383 -0.000000 0.000003 0.000000 -3.499486 -5.677517 9.792575 3.400074 4.106691 2.822123 -0.000006 0.000005 0.000016 8.985825 22.419382 -3.977202 -21.412886 -47.725906 -13.876918 -0.000003 -0.000004 0.000006 -0.567981 -10.410076 2.838715 1.224998 14.061816 1.723745 -0.000001 0.000009 0.000001 -4.266729 18.969116 -13.761299 39.926342 -41.780175 37.752908 -0.000010 0.000015 0.000009 13.718500 -14.707124 -9.740310 -39.450725 17.765732 39.200751 -0.000010 0.000001 -0.000004 -0.614075 2.974642 -3.784456 1.498628 -5.017920 -0.369196 -0.000003 -0.000001 -0.000009 -0.520146 -27.892732 -7.899895 -13.663663 60.344189 13.128383 0.000001 0.000000 0.000001 0.627163 2.667994 7.503182 -2.226266 -5.132436 2.339825 0.000012 0.000001 0.000000 
0.000000 1.809483 1.070688 -0.000029 -0.027660 -0.055568 -0.000005 -0.000004 -0.000006 1.009508 2.226056 -2.318560 0.104471 -1.103131 -1.124110 -3.414453 2.503451 20.225194 0.000001 0.000001 -0.000004 4.945121 2.468212 -0.070490 0.000010 -0.000004 0.000010 -7.092781 -3.775530 -0.201599 0.000006 -0.000000 0.000009 -1.013457 -0.461563 -4.328791 0.205548 1.278909 1.839511 -2.356620 -8.061280 -32.829994 0.000002 -0.000002 -0.000001 1.588647 0.646167 3.897026 0.000003 0.000002 0.000009 13.099373 -5.848998 6.053385 -0.000002 0.000005 0.000005 -2.886961 -4.660933 10.203806 1.885453 2.227687 1.574707 -0.000006 0.000003 0.000012 9.193604 24.849232 -3.291872 -19.211546 -44.996142 -12.030870 -0.000003 -0.000004 0.000006 -0.444584 -7.871548 3.185229 0.833953 9.059735 1.139209 0.000000 0.000010 0.000003 -5.236008 20.494855 -13.481149 35.650101 -39.936598 33.593049 -0.000013 0.000016 0.000004 14.705435 -16.075292 -10.288798 -36.288563 17.472976 36.055182 -0.000006 -0.000000 -0.000004 -0.384257 1.875221 -3.811965 0.785328 -2.623552 -0.211245 -0.000002 -0.000002 -0.000005 -0.011853 -30.488462 -7.572972 -10.907403 55.451987 10.355106 0.000001 0.000004 0.000002 0.344981 1.599747 8.017772 -1.044902 -2.343485 1.098554 0.000013 0.000004 -0.000000 
0.000000 1.809483 1.070688 -0.000062 -0.048585 -0.109761 -0.000006 -0.000004 -0.000006 0.992159 2.076999 -2.368554 0.106277 -1.124609 -1.145949 -3.414449 2.503449 20.225191 0.000002 0.000002 -0.000006 4.945127 2.468214 -0.070484 0.000005 -0.000002 0.000010 -7.092778 -3.775533 -0.201587 0.000006 0.000000 0.000007 -0.989415 -0.612185 -4.325902 0.205385 1.277781 1.837897 -2.356615 -8.061283 -32.830001 0.000003 -0.000002 -0.000005 1.610671 0.617944 3.844553 0.000001 -0.000000 0.000006 13.099379 -5.848995 6.053384 0.000003 0.000002 0.000005 -1.907998 -2.991076 10.825219 -0.756055 -0.856429 -0.634120 -0.000005 0.000007 0.000015 9.229487 27.522372 -2.104411 -15.618063 -39.702711 -9.114506 -0.000004 -0.000007 0.000006 -0.257956 -3.941374 3.719467 0.128447 1.305833 0.174986 -0.000001 0.000010 0.000002 -6.475179 22.134408 -12.800295 28.584439 -36.016694 26.770657 -0.000013 0.000014 0.000008 15.693181 -17.601153 -10.833921 -30.612307 16.522514 30.415054 -0.000007 0.000000 -0.000004 0.059037 -0.163994 -3.836485 -0.457035 1.484225 0.127465 -0.000003 0.000003 -0.000007 0.703601 -32.704687 -6.889792 -7.563991 46.246316 6.684549 0.000000 0.000002 0.000002 -0.176362 -0.361417 8.852425 1.093273 2.313115 -1.131815 0.000013 -0.000001 -0.000000 
0.000000 1.809483 1.070689 -0.000144 -0.077663 -0.185071 -0.000008 -0.000004 -0.000006 0.980298 1.874278 -2.434724 0.108714 -1.153511 -1.175341 -3.414453 2.503449 20.225198 -0.000001 0.000002 -0.000006 4.945126 2.468214 -0.070486 0.000007 -0.000002 0.000010 -7.092780 -3.775532 -0.201592 0.000006 0.000000 0.000005 -0.948611 -0.816332 -4.325474 0.205988 1.281982 1.843897 -2.356614 -8.061281 -32.830001 0.000003 -0.000002 -0.000006 1.633757 0.588239 3.789455 0.000003 0.000000 0.000005 13.099382 -5.849000 6.053374 0.000001 0.000003 0.000002 -0.679177 -0.885258 11.484379 -4.236782 -4.563511 -3.603583 -0.000003 0.000003 0.000015 8.830370 28.691985 -0.659517 -11.638460 -32.282155 -6.046400 -0.000004 -0.000006 0.000001 -0.086332 0.588744 4.316942 -0.844036 -7.511879 -1.047611 -0.000001 0.000009 0.000003 -7.353751 22.676448 -11.741590 20.609534 -29.936391 19.148060 -0.000012 0.000020 0.000008 15.932931 -18.255888 -11.016766 -23.385876 14.484224 23.242555 -0.000007 -0.000000 -0.000004 0.667100 -2.832622 -3.817217 -2.081211 6.675286 0.681509 -0.000002 -0.000000 -0.000009 1.330426 -32.512745 -6.004723 -4.120369 33.323731 4.046628 0.000000 0.000000 0.000002 -0.811881 -2.845011 9.812666 4.010784 7.948671 -4.155383 0.000014 0.000002 -0.000010 
